<?xml version="1.0" standalone="no"?>
<svg xmlns="http://www.w3.org/2000/svg" viewBox="0 0 93.6 36" width="93.6" height="36"><g fill="#66d754" color="#66d754" transform="translate(0 3.9999999999999982) scale(0.2800001)"><svg width="100.0" height="100.0" x="0.0" y="0.0" viewBox="0 0 100 100"><g><path d="M54.61,39.784l32.749,0l0,20.78l-32.749,0l0,-20.78ZM87.359,82.605c0,2.843 -1.911,4.754 -4.754,4.754l-27.995,0l0,-17.575l32.749,0l0,12.821ZM45.39,45.774l-32.749,0l0,-28.379c0,-2.843 1.911,-4.754 4.754,-4.754l27.995,0l0,33.133ZM45.39,87.359l-27.995,0c-2.843,0 -4.754,-1.911 -4.754,-4.754l0,-27.611l32.749,0l0,32.365ZM82.605,12.641c2.843,0 4.754,1.911 4.754,4.754l0,13.169l-32.749,0l0,-17.923l27.995,0ZM82.605,3.422l-65.21,0c-7.918,0 -13.973,6.055 -13.973,13.973l0,65.21c0,7.918 6.055,13.973 13.973,13.973l65.21,0c7.918,0 13.973,-6.055 13.973,-13.973l0,-65.21c0,-7.918 -6.055,-13.973 -13.973,-13.973" style="" fill="currentColor" fill-rule="nonzero"></path></g></svg></g><path fill="#394637" fill-rule="nonzero" d="M6 19.44L3.29 19.44L3.29 2.02L0 2.02L0 0L9.19 0L9.19 2.02L6 2.02L6 19.44ZM13.49 19.44L10.92 19.44L10.92 5.57L13.49 5.57L13.49 7.54Q14.26 6.26 15.02 5.83Q15.79 5.40 16.56 5.40L16.56 5.40Q16.66 5.40 16.74 5.40Q16.82 5.40 16.97 5.42L16.97 5.42L16.97 8.26Q16.68 8.14 16.31 8.05Q15.94 7.97 15.55 7.97L15.55 7.97Q14.95 7.97 14.46 8.24Q13.97 8.52 13.49 9.31L13.49 9.31L13.49 19.44ZM22.39 19.63L22.39 19.63Q20.76 19.63 19.87 19.00Q18.98 18.36 18.64 17.12Q18.29 15.89 18.29 14.09L18.29 14.09L18.29 10.92Q18.29 9.07 18.65 7.85Q19.01 6.62 19.91 6.00Q20.81 5.38 22.39 5.38L22.39 5.38Q24.14 5.38 24.97 6.10Q25.80 6.82 26.06 8.17Q26.33 9.53 26.33 11.42L26.33 11.42L26.33 12.55L20.86 12.55L20.86 15.34Q20.86 16.18 21.01 16.70Q21.17 17.23 21.52 17.48Q21.86 17.74 22.42 17.74L22.42 17.74Q22.99 17.74 23.29 17.46Q23.59 17.18 23.70 16.67Q23.81 16.15 23.81 15.46L23.81 15.46L23.81 14.62L26.30 14.62L26.30 15.14Q26.30 17.23 25.42 18.43Q24.53 19.63 22.39 19.63ZM20.86 10.42L20.86 11.16L23.81 11.16L23.81 9.91Q23.81 9.05 23.71 8.46Q23.62 7.87 23.32 7.57Q23.02 7.27 22.37 7.27L22.37 7.27Q21.74 7.27 21.42 7.56Q21.10 7.85 20.98 8.53Q20.86 9.22 20.86 10.42L20.86 10.42ZM31.46 19.44L28.90 19.44L28.90 0L31.46 0L31.46 19.44ZM36.96 19.44L34.39 19.44L34.39 0L36.96 0L36.96 19.44ZM43.49 19.63L43.49 19.63Q41.86 19.63 40.97 19.00Q40.08 18.36 39.73 17.12Q39.38 15.89 39.38 14.09L39.38 14.09L39.38 10.92Q39.38 9.07 39.74 7.85Q40.10 6.62 41.00 6.00Q41.90 5.38 43.49 5.38L43.49 5.38Q45.24 5.38 46.07 6.10Q46.90 6.82 47.16 8.17Q47.42 9.53 47.42 11.42L47.42 11.42L47.42 12.55L41.95 12.55L41.95 15.34Q41.95 16.18 42.11 16.70Q42.26 17.23 42.61 17.48Q42.96 17.74 43.51 17.74L43.51 17.74Q44.09 17.74 44.39 17.46Q44.69 17.18 44.80 16.67Q44.90 16.15 44.90 15.46L44.90 15.46L44.90 14.62L47.40 14.62L47.40 15.14Q47.40 17.23 46.51 18.43Q45.62 19.63 43.49 19.63ZM41.95 10.42L41.95 11.16L44.90 11.16L44.90 9.91Q44.90 9.05 44.81 8.46Q44.71 7.87 44.41 7.57Q44.11 7.27 43.46 7.27L43.46 7.27Q42.84 7.27 42.52 7.56Q42.19 7.85 42.07 8.53Q41.95 9.22 41.95 10.42L41.95 10.42ZM51.10 19.44L48.67 19.44L51.79 12.14L48.74 5.57L51.19 5.57L53.23 9.96L55.03 5.57L57.55 5.57L54.38 12.46L57.60 19.44L55.15 19.44L52.97 14.74L51.10 19.44Z" transform="translate(36, 8.28)"></path></svg>